<svg version="1.1" id="Layer_1" xmlns="http://www.w3.org/2000/svg" x="0" y="0" width="275" height="96" style="enable-background:new 0 0 275 96" xml:space="preserve"><style>.st0{fill:#f8ff13}</style><path d="m17.3 95.9 10.9-39H0L16.3 0h184.5l-10.9 38.4H275L259 96H17.3z"/><path class="st0" d="m79.6 20.8-2.2 7.4H66.2l2.2-7.4h11.2zM61.4 45.7l2.6-9.3h12.2c6.4 0 10.2-2.9 12.2-9l1-3.5c2.2-7.7-1.3-12.8-9.6-12.8H27.2l-9.9 34.2h44.1v.4zM107.8 20.8h4.2v10.9h-10.2l6-10.9zM93.7 45.7l3.2-5.8h15v5.8h9.9V11.5h-19.2L82.5 45.7h11.2zM142 20.8h10.9l-1.9 7.4h-11.2l2.2-7.4zm19.8 6.7 1-3.2c2.2-8-1.3-12.8-9.6-12.8h-18.5l-9.9 34.2H135l2.6-9.3h6.4l2.9 9.3h10.6l-3.2-9.9c3.7-1.3 6.2-3.8 7.5-8.3zM171.4 45.7l9.9-34.2h-10.2l-9.9 34.2h10.2zM107.4 50.5 95.6 64.3l-4.5-13.7H46.7l-9.6 34.2h44.1l5.4-18.9 3.5 10.6h6.4l9.6-11.2-5.4 19.5H111l9.6-34.2h-13.2zM133.3 70.7l6.1-10.9h4.2v10.9h-10.3zm1-20.2-20.1 34.2h11.5l3.2-5.8h15v5.8h9.9V50.5h-19.5zM188.3 60.4l2.6-9.9h-31l-2.9 9.9h11.2l-6.7 24.3h10.2l6.7-24.3h9.9zM201.8 60.4h15.7l2.9-9.9h-16.6c-6.4 0-10.2 2.9-12.2 9L188 71.9c-2.2 8 1.3 12.8 9.6 12.8h12.8l2.9-9.9h-15.7l4.2-14.4zM246.5 50.5 243 63h-11.5l3.5-12.5h-10.2l-9.9 34.2h10.2l3.5-12.2h11.8l-3.5 12.2h10.2l9.6-34.2h-10.2z"/></svg>