<svg version="1.1" id="Layer_1" xmlns="http://www.w3.org/2000/svg" x="0" y="0" viewBox="0 0 155 56" style="enable-background:new 0 0 155 56" xml:space="preserve"><style>.st3,.st4{fill-rule:evenodd;clip-rule:evenodd;fill:#4bbaeb}.st4{fill:#60e0fd}</style><g id="Home"><g id="_x31_632-WinnigDays" transform="translate(-40 -12)"><g id="Menu" transform="translate(12 12)"><g id="Logo" transform="translate(28.2)"><g id="Group-19" transform="translate(.213 .42)"><linearGradient id="path28_1_" gradientUnits="userSpaceOnUse" x1="-1648.304" y1="-204.692" x2="-1647.286" y2="-204.711" gradientTransform="matrix(9.4273 0 0 -9.4272 15560.452 -1924.19)"><stop offset="0" style="stop-color:#4ab9eb"/><stop offset="1" style="stop-color:#62e4ff"/></linearGradient><path id="path28" d="M25.6.9c2.6 0 4.7 2.1 4.7 4.7s-2.1 4.7-4.7 4.7-4.7-2.1-4.7-4.7S23 .9 25.6.9" style="fill:url(#path28_1_)"/><linearGradient id="path44_1_" gradientUnits="userSpaceOnUse" x1="-1789.095" y1="-41.791" x2="-1788.518" y2="-41.802" gradientTransform="matrix(33.8199 0 0 -44.8912 60537.688 -1845.169)"><stop offset="0" style="stop-color:#4ab9eb"/><stop offset="1" style="stop-color:#62e4ff"/></linearGradient><path id="path44" d="M52.3 11.2c1.8-4.7 6.3-2.5 1.7 9.3-4.9 13.4-11.5 33.1-17.1 33-5.1-.3-10.2-22.1-14.3-22.1h-.2c7.1-2.4 16.6 5.9 16.7 5.2h.2c3.4-.1 11-20.1 13-25.4" style="fill:url(#path44_1_)"/><linearGradient id="path60_1_" gradientUnits="userSpaceOnUse" x1="-1797.102" y1="-63.938" x2="-1796.085" y2="-63.956" gradientTransform="matrix(39.4862 0 0 -29.7004 70962.75 -1870.89)"><stop offset="0" style="stop-color:#4ab9eb"/><stop offset="1" style="stop-color:#62e4ff"/></linearGradient><path id="path60" d="M22.4 31.5c7.1-2.4 16.6 5.9 16.7 5.2-5.6-6.4-10-23.1-13.6-23.2-3.6-.1-8.3 15.7-10.5 15.5-2.3-.2-5.1-8.1-7.5-8.6C4 19.2.3 22.6-.1 25.6 7.3 23.3 8.4 43 13.7 43.1c3 0 4.5-8.5 7.4-10.9.3-.4.8-.6 1.3-.7" style="fill:url(#path60_1_)"/></g><g id="Group-15" transform="translate(60.75 15.934)"><path id="path62" class="st3" d="M4.3 15.1h4.2l2.1-5.6 2.1 5.6H17L21.4.8h-5.5l-1.5 4.7L12.5.9h-4L6.8 5.4 5.3.9H-.5l4.8 14.2"/><path id="path64" class="st3" d="M37.9 15.2h4.4L42.4.8h-5.8v4.7L33.4.8h-4.2v14.3H35l.1-4.3 2.8 4.4"/><path id="path66" class="st4" d="m42.1 23.2.9 3.7h-2.2l1.3-3.7zm-8.6 9h5.7l.7-2.3h4.3c.2.3.7 2.1.7 2.3h5.7L46 18.8h-7.8l-4.7 13.4"/><path id="path68" class="st4" d="M26.9 27v-3.3c1.1-.2 2.4.3 2.4 1.7.1 1.5-1.5 2-2.4 1.6zm2.7 5.2c2.9-.3 5-3 5.2-6.6-.1-3.9-2.4-7-6.6-7h-6.6v13.5h8"/><path id="path70" class="st3" d="M89.6 15.2h3.8V7.8h-5.6V9c-.1 1.9-3.3.5-2.2-1.7 1.2-2.6 5-1 5.5-.4l2.7-4.2C89.1-1 80 1.1 80.3 8.4c0 1 .4 2.4.8 3.4 2.2 3.5 4.7 3.5 8.5 3.4"/><path id="path72" class="st4" d="M60.7 31.2c3.9 1.6 11.7 1.9 11.1-3.9-.4-1.6-.8-1.9-2-2.7-.8-.6-3.2-1.1-3.4-1.8-.1-.6.3-.8.9-.8 1.4.1 2.3.8 2.9 1.8l1.1-4c-2.5-1.7-8.9-1.8-10 2.2-.2.7-.2 1.4 0 2.3.9 2.5 3.1 2.2 4.3 3.4.2.3.4.6.1.9-1.3 1.5-3.5-.9-3.6-1.6l-1.4 4.2"/><path id="path74" class="st4" d="m51.6 26.1.1 6.1h5.5l.1-6 4.7-7.5h-5.9l-1.5 2.6-1.8-2.5H47l4.6 7.3"/><path id="path76" class="st3" d="m21.8 15.2 5.7-.1V.9h-5.8l.1 14.3"/><path id="path78" class="st3" d="M74.8 15.2h4.4L79.3.8h-5.8v4.7L70.3.8h-4.2v14.3H72l.1-4.3 2.7 4.4"/><path id="path80" class="st3" d="m58.8 15.2 5.7-.1.1-14.2h-5.8v14.3"/><path id="path82" class="st3" d="M52.6 15.2H57V.8h-5.8v4.7L48 .8h-4.2v14.3h5.8l.1-4.3 2.9 4.4"/></g></g></g></g></g></svg>