<svg xmlns="http://www.w3.org/2000/svg" viewBox="0 0 441 109" style="enable-background:new 0 0 441 109" xml:space="preserve"><linearGradient id="a" gradientUnits="userSpaceOnUse" x1="-8.469" y1="69.695" x2="431.531" y2="-36.305"><stop offset="0" style="stop-color:#21e418"/><stop offset=".3" style="stop-color:#31b6e9"/><stop offset=".976" style="stop-color:#21e418"/></linearGradient><path d="M54.5 0C24.4 0 0 24.4 0 54.6c0 5.4.8 10.7 2.4 15.8 1-1.4 2-2.8 2.9-4.3 3.8-5.6 7.5-11.2 11.2-16.9l2.7-4.3c.9-1.4 1.8-2.9 2.6-4.3 1.8-2.9 3.5-5.8 5.1-8.7.8-1.5 1.6-2.9 2.5-4.4s1.6-2.9 2.4-4.4 1.6-3 2.3-4.4l2.2-4.5.2-.3c1.2-2.4 4.1-3.4 6.6-2.3 1.8 1 2.9 2.9 2.8 5 0 2.6-.5 5.3-.7 7.9s-.3 5.3-.5 8c-.2 5.3-.3 10.7-.3 16s.3 10.6.8 15.7c.3 2.5.7 5 1.2 7.5.4 2.2 1.1 4.4 2.1 6.4.3.6.7 1.2 1.2 1.7.3.2.1.1.3.1h.2l.2-.1h.1l.3-.1c.1-.1.3-.2.4-.3.8-.6 1.5-1.3 2.2-2.1 1.6-1.9 3.1-3.8 4.4-5.9 1.4-2.1 2.7-4.4 4-6.7 2.6-4.6 5-9.3 7.3-14.1 1.1-2.4 2.3-4.8 3.4-7.3 1.1-2.4 2.2-4.9 3.2-7.3 1-2.5 3.9-3.7 6.4-2.7 1.6.6 2.7 2 3 3.7 0 .6.1 1.4.2 2.2l.3 2.3c.2 1.5.4 3 .7 4.5.5 3 1.1 6 1.9 8.9.8 2.9 1.8 5.8 3 8.6s2.7 5.4 4.6 7.8c.4.6.3 1.4-.2 1.8-.5.4-1.2.4-1.6 0-2.5-2.2-4.7-4.7-6.6-7.4-1.9-2.7-3.5-5.6-5-8.5-1-2-1.8-4-2.7-6-.6 1.2-1.1 2.4-1.7 3.5-2.4 4.9-4.8 9.8-7.6 14.7-1.4 2.6-2.8 5-4.4 7.4-1.6 2.5-3.4 4.9-5.3 7.1-1.1 1.3-2.4 2.4-3.7 3.5-.4.3-.8.6-1.3.8l-.9.5-.5.2h-.1l-.3.1h-.2l-.4.1c-.3.1-.5.2-.8.2l-1.8.3c-1.3.1-2.7-.1-3.9-.5-1.2-.4-2.3-1.1-3.3-1.9-1.5-1.3-2.8-2.9-3.7-4.7-1.4-2.8-2.4-5.8-3-8.9-.6-2.8-1-5.7-1.3-8.5-.6-5.6-.8-11.1-.9-16.7v-7.9c-1 1.9-2 3.8-3 5.6-.8 1.5-1.6 3-2.5 4.5l-2.5 4.5c-3.4 6-6.9 11.9-10.6 17.8-2.3 3.8-4.7 7.6-7.1 11.3 16.5 25.2 50.3 32.2 75.5 15.7s32.2-50.3 15.7-75.5C90 9.3 72.9 0 54.5 0z" style="fill:url(#a)"/><linearGradient id="b" gradientUnits="userSpaceOnUse" x1="-3.729" y1="89.369" x2="436.271" y2="-16.631"><stop offset="0" style="stop-color:#21e418"/><stop offset=".3" style="stop-color:#31b6e9"/><stop offset=".976" style="stop-color:#21e418"/></linearGradient><path d="M156.2 74.2V38h-.9l-11.6 36.3h-2.9L129.2 38h-.9v36.2h-4.8v-40h8.5L142.3 66l10.1-31.8h8.6v40.1h-4.8z" style="fill:url(#b)"/><linearGradient id="c" gradientUnits="userSpaceOnUse" x1="-2.176" y1="95.817" x2="437.824" y2="-10.183"><stop offset="0" style="stop-color:#21e418"/><stop offset=".3" style="stop-color:#31b6e9"/><stop offset=".976" style="stop-color:#21e418"/></linearGradient><path d="M168 39.4v-5.2h5.2v5.2H168zm.1 34.8V43.3h5.1v30.9h-5.1z" style="fill:url(#c)"/><linearGradient id="d" gradientUnits="userSpaceOnUse" x1=".023" y1="104.947" x2="440.024" y2="-1.053"><stop offset="0" style="stop-color:#21e418"/><stop offset=".3" style="stop-color:#31b6e9"/><stop offset=".976" style="stop-color:#21e418"/></linearGradient><path d="M204.1 64.1c0 6-2.3 10.6-12.3 10.6-12.6 0-13.3-7.2-13.3-16s.7-16 13.3-16c10 0 12.3 4.6 12.3 10.6h-4.8c0-4.9-1.7-7.3-7.5-7.3-7.8 0-8.2 4.2-8.2 12.6s.4 12.6 8.2 12.6c5.8 0 7.5-2.4 7.5-7.3l4.8.2z" style="fill:url(#d)"/><linearGradient id="e" gradientUnits="userSpaceOnUse" x1="1.137" y1="109.568" x2="441.137" y2="3.568"><stop offset="0" style="stop-color:#21e418"/><stop offset=".3" style="stop-color:#31b6e9"/><stop offset=".976" style="stop-color:#21e418"/></linearGradient><path d="M214 46.6c2.4-1.5 5.5-3.5 8.4-3.6.6-.1 1.2-.1 1.8-.1.8 0 1.5 0 2.4.1l-.4 3.7c-.8-.1-1.5-.1-2.2-.1-.6 0-1.2 0-1.9.1-2.7.1-5.6 2.1-7.7 3.3v24.3h-5.1v-31h4l.7 3.3z" style="fill:url(#e)"/><linearGradient id="f" gradientUnits="userSpaceOnUse" x1="2.77" y1="116.346" x2="442.77" y2="10.346"><stop offset="0" style="stop-color:#21e418"/><stop offset=".3" style="stop-color:#31b6e9"/><stop offset=".976" style="stop-color:#21e418"/></linearGradient><path d="M255.2 58.8c0 8.8-.7 16-13.5 16s-13.5-7.2-13.5-16 .7-16 13.5-16 13.5 7.2 13.5 16zm-21.9 0c0 8.4.4 12.6 8.4 12.6s8.4-4.1 8.4-12.6-.4-12.6-8.4-12.6-8.4 4.1-8.4 12.6z" style="fill:url(#f)"/><linearGradient id="g" gradientUnits="userSpaceOnUse" x1="5.658" y1="128.336" x2="445.658" y2="22.336"><stop offset="0" style="stop-color:#21e418"/><stop offset=".3" style="stop-color:#31b6e9"/><stop offset=".976" style="stop-color:#21e418"/></linearGradient><path d="M264.5 81.4c1.9.2 4.4.3 7.2.3 7.8 0 8.8-2.1 8.9-10.3-2.3 1.3-5.5 2.8-8.8 2.9-11.3.2-12-5.9-12-15.5s.6-16 11.5-16c3.7 0 7.1 1.7 9.8 3.4l.5-2.8h4v27.4c0 11.1-2.5 14.5-12.7 14.5-3 0-6-.3-8.9-.7l.5-3.2zM280.6 49c-2.2-1.4-5-2.8-7.7-2.8-7.5 0-8 4.2-8 12.6 0 8.2.5 12.1 8 12.1 2.7 0 5.6-1.5 7.7-2.6V49z" style="fill:url(#g)"/><linearGradient id="h" gradientUnits="userSpaceOnUse" x1="6.405" y1="131.435" x2="446.405" y2="25.435"><stop offset="0" style="stop-color:#21e418"/><stop offset=".3" style="stop-color:#31b6e9"/><stop offset=".976" style="stop-color:#21e418"/></linearGradient><path d="m313.3 74.2-.5-2.8c-2.5 1.6-5.8 3.4-9.4 3.4-11.3.2-12-6.2-12-16s.6-16 11.8-16c3.7 0 7 1.7 9.5 3.2l.5-2.7h4v30.9h-3.9zm-1-25.4c-2.1-1.2-5-2.6-7.7-2.6-7.5 0-8 4.2-8 12.6s.5 12.6 8 12.6c2.7 0 5.5-1.5 7.7-2.8V48.8z" style="fill:url(#h)"/><linearGradient id="i" gradientUnits="userSpaceOnUse" x1="8.428" y1="139.833" x2="448.428" y2="33.833"><stop offset="0" style="stop-color:#21e418"/><stop offset=".3" style="stop-color:#31b6e9"/><stop offset=".976" style="stop-color:#21e418"/></linearGradient><path d="M328 46c2.3-1.4 5.4-3.1 8.7-3.2 5.2-.2 7.9 1.2 9.2 3.4 2.4-1.5 5.6-3.3 9.1-3.4 10.6-.3 11.3 5.1 11.3 12.6v18.8h-5.1V55.7c0-6.4-.4-9.5-7.3-9.5-2.5 0-5.1 1.5-7.2 2.8.5 2.2.7 4.5.6 6.8v18.5h-4.4V55.7c0-6.4-.4-9.5-7.3-9.5-2.4 0-5 1.5-7 2.6v25.4h-5.1V43.3h4l.5 2.7z" style="fill:url(#i)"/><linearGradient id="j" gradientUnits="userSpaceOnUse" x1="9.049" y1="142.413" x2="449.049" y2="36.413"><stop offset="0" style="stop-color:#21e418"/><stop offset=".3" style="stop-color:#31b6e9"/><stop offset=".976" style="stop-color:#21e418"/></linearGradient><path d="M372.6 39.4v-5.2h5.2v5.2h-5.2zm.1 34.8V43.3h5.1v30.9h-5.1z" style="fill:url(#j)"/><linearGradient id="k" gradientUnits="userSpaceOnUse" x1="11.286" y1="151.696" x2="451.286" y2="45.696"><stop offset="0" style="stop-color:#21e418"/><stop offset=".3" style="stop-color:#31b6e9"/><stop offset=".976" style="stop-color:#21e418"/></linearGradient><path d="M388.6 46c2.5-1.4 5.8-3.1 9.4-3.2 11.3-.3 12 5.1 12 12.6v18.8h-5.1V55.7c0-6.4-.5-9.5-8-9.5-2.7 0-5.6 1.5-7.7 2.7v25.4h-5.1v-31h4l.5 2.7z" style="fill:url(#k)"/><linearGradient id="l" gradientUnits="userSpaceOnUse" x1="14.179" y1="163.706" x2="454.179" y2="57.706"><stop offset="0" style="stop-color:#21e418"/><stop offset=".3" style="stop-color:#31b6e9"/><stop offset=".976" style="stop-color:#21e418"/></linearGradient><path d="M419.9 81.4c1.9.2 4.4.3 7.2.3 7.8 0 8.8-2.1 8.9-10.3-2.3 1.3-5.5 2.8-8.8 2.9-11.3.2-12-5.9-12-15.5s.6-16 11.5-16c3.7 0 7.1 1.7 9.8 3.4l.5-2.8h4v27.4c0 11.1-2.5 14.5-12.7 14.5-3 0-6-.3-8.9-.7l.5-3.2zm16-32.4c-2.2-1.4-5-2.8-7.7-2.8-7.5 0-8 4.2-8 12.6 0 8.2.5 12.1 8 12.1 2.7 0 5.6-1.5 7.7-2.6V49z" style="fill:url(#l)"/></svg>