<svg version="1.1" id="Layer_1" xmlns="http://www.w3.org/2000/svg" x="0" y="0" width="720" height="175" style="enable-background:new 0 0 720 175" xml:space="preserve"><style>.st0{fill:#e03d22}</style><path class="st0" d="M145 56h47v119h-47V56zm205 10h80v41h-80V66zM168.5 47c13 0 23.5-10.5 23.5-23.5S181.5 0 168.5 0 145 10.5 145 23.5 155.5 47 168.5 47zM337 64c-.2-35.4-29.7-64-65.9-64s-65.4 28.3-65.9 63.5L205 169v6h49V64.8c0-10 8.1-18.1 18-18.1s18 8.1 18 18.1V175h47V64zM0 175h47.4V71.9c0-16.7 6-25.2 18.2-25.2 5.1 0 9.4 1.7 13.1 5.2 3.6 3.5 5.4 7.7 5.4 12.7 0 4.9-1.7 9.2-5.2 12.8-3.5 3.6-7.6 5.4-12.6 5.4-3.5 0-6.9-1.3-10.3-3.7v51c4.9.5 8.6.8 11.3.8 17.5 0 32.6-6.5 45.5-19.4C125.6 98.6 132 83.2 132 65.3c0-18.3-6.4-33.8-19.4-46.4S83.8 0 65 0c-9.4 0-18.7 2.1-27.6 6.2-8.9 4.1-16.4 9.6-22.2 16.6C5 35 0 50.7 0 70v105zm588 0h47.4V71.9c0-16.7 6-25.2 18.2-25.2 5.1 0 9.4 1.7 13.1 5.2 3.6 3.5 5.4 7.7 5.4 12.7 0 4.9-1.7 9.2-5.2 12.8-3.5 3.6-7.6 5.4-12.6 5.4-3.5 0-6.9-1.3-10.3-3.7v51c4.9.5 8.6.8 11.3.8 17.5 0 32.6-6.5 45.5-19.4C713.6 98.6 720 83.2 720 65.3c0-18.3-6.4-33.8-19.4-46.4S671.8 0 653 0c-9.4 0-18.7 2.1-27.6 6.2-8.9 4.1-16.4 9.6-22.2 16.6C593 35 588 50.7 588 70v105zM443 6l.2 105.5c.5 35.2 29.7 63.5 65.9 63.5s65.7-28.6 65.9-63.9V4h-47v106.2c0 10-8.1 18.1-18 18.1s-18-8.1-18-18.1V4h-49v2zm0-6h49-49zm85 0h47-47z"/></svg>