<svg width="380" height="217" fill="none" xmlns="http://www.w3.org/2000/svg"><path d="M105.636 142.596c-3.768-3.608-8.66-5.451-14.753-5.451-6.094 0-10.985 1.923-14.833 5.691-3.769 3.768-5.693 8.497-5.693 14.189 0 6.012 1.924 10.821 5.693 14.509 3.848 3.607 8.74 5.451 14.753 5.451 5.933 0 10.824-1.844 14.673-5.611 1.924-1.844 3.448-4.009 4.41-6.413.962-2.405 1.443-5.051 1.443-7.936.08-6.013-1.844-10.822-5.693-14.429Zm-6.173 23.166c-2.085 2.245-4.892 3.367-8.58 3.367-3.207 0-6.174-1.122-8.419-3.447-2.245-2.405-3.207-5.291-3.207-8.738 0-3.527 1.122-6.493 3.287-8.737 2.165-2.245 4.972-3.367 8.34-3.367 3.206 0 6.013 1.122 8.258 3.367 2.245 2.244 3.287 5.13 3.287 8.737.08 3.608-.962 6.494-2.966 8.818ZM137.147 154.379h-10.904v-8.818h12.588c.641 0 1.123-.481 1.123-1.122v-5.611c0-.641-.482-1.122-1.123-1.122h-19.885c-.641 0-1.122.481-1.122 1.122v36.313c0 .641.481 1.122 1.122 1.122h6.174c.642 0 1.123-.481 1.123-1.122v-12.986h10.904c.642 0 1.123-.481 1.123-1.122v-5.612c-.08-.481-.562-1.042-1.123-1.042ZM155.509 145.561v29.66c0 .642.481 1.123 1.122 1.123h6.174c.641 0 1.123-.481 1.123-1.123v-29.66h10.664c.641 0 1.122-.481 1.122-1.122v-5.611c0-.641-.481-1.122-1.122-1.122h-29.667c-.642 0-1.123.481-1.123 1.122v5.611c0 .641.481 1.122 1.123 1.122h10.584ZM190.468 160.391c1.924.882 3.367 1.844 4.409 2.726.963.882 1.524 1.763 1.524 2.725 0 1.042-.401 1.844-1.123 2.485-.721.561-1.683.882-2.886.882-1.604 0-3.127-.401-4.731-1.122-1.122-.561-2.085-1.203-2.886-2.004-.481-.481-1.203-.401-1.604.08l-3.448 4.168c-.32.401-.32.882-.08 1.283.962 1.523 2.486 2.725 4.57 3.687 2.486 1.123 5.132 1.684 7.938 1.684 3.849 0 6.896-1.042 9.381-3.207 2.085-1.603 3.448-3.928 3.689-6.493.24-2.645-.161-4.81-1.123-6.653-.802-1.523-1.764-2.646-2.886-3.447-1.203-.882-2.486-1.603-3.849-2.405-1.443-.721-2.726-1.363-3.929-1.844-1.203-.561-2.245-1.202-3.127-2.004-.802-.801-1.283-1.763-1.283-2.886 0-.962.401-1.763 1.123-2.324.802-.561 1.844-.802 3.047-.802 1.283 0 2.325.16 3.207.561.561.241 1.122.641 1.764 1.122.481.401 1.203.321 1.603-.24l3.208-4.489c.32-.481.24-1.122-.161-1.443-2.565-2.245-6.013-3.367-10.423-3.367-3.769 0-6.735 1.042-8.98 3.207-2.245 2.164-3.368 4.729-3.368 7.775 0 1.363.16 2.646.561 3.848.481 1.203 1.043 2.245 1.604 2.966a11.627 11.627 0 0 0 2.486 2.325c1.042.721 1.924 1.363 2.726 1.763.882.561 1.924.962 3.047 1.443ZM228.072 175.542l8.018-25.011 8.098 25.011c.161.481.561.721 1.043.721h6.494c.481 0 .882-.32 1.042-.801l10.264-36.314c.16-.721-.321-1.362-1.043-1.362h-5.773c-.481 0-.962.32-1.042.801l-6.655 24.61-7.537-24.61c-.16-.481-.561-.801-1.042-.801h-6.976c-.481 0-.882.32-1.042.801l-7.297 24.69-6.575-24.61c-.16-.481-.561-.801-1.042-.801h-7.216c-.722 0-1.283.721-1.043 1.363l10.745 36.313c.16.481.561.802 1.042.802h6.495c.481 0 .962-.321 1.042-.802ZM270.488 176.344h6.174c.641 0 1.122-.481 1.122-1.123v-36.313c0-.641-.481-1.122-1.122-1.122h-6.174c-.642 0-1.123.481-1.123 1.122v36.313c0 .561.481 1.123 1.123 1.123ZM296.065 160.391c1.924.882 3.368 1.844 4.41 2.726.962.882 1.523 1.763 1.523 2.725 0 1.043-.4 1.844-1.122 2.485-.722.562-1.684.882-2.887.882-1.603 0-3.127-.401-4.73-1.122-1.123-.561-2.085-1.202-2.887-2.004-.481-.481-1.202-.401-1.603.08l-3.448 4.168c-.321.401-.321.882-.08 1.283.962 1.523 2.485 2.726 4.57 3.688 2.486 1.122 5.132 1.683 7.938 1.683 3.849 0 6.895-1.042 9.381-3.207l.401-.32c2.085-2.004 3.368-4.73 3.368-7.535 0-2.004-.401-3.768-1.203-5.211-.802-1.523-1.764-2.645-2.887-3.447-1.202-.882-2.485-1.603-3.848-2.405-1.444-.721-2.726-1.362-3.929-1.843-1.203-.562-2.245-1.203-3.127-2.005-.802-.801-1.283-1.763-1.283-2.885 0-.962.401-1.764 1.122-2.325.802-.561 1.845-.802 3.047-.802 1.283 0 2.326.161 3.207.562.562.24 1.123.641 1.764 1.122.482.401 1.203.32 1.604-.241l3.207-4.489c.321-.481.241-1.122-.16-1.443-2.566-2.244-6.014-3.366-10.424-3.366-3.768 0-6.735 1.042-8.98 3.206-2.245 2.164-3.367 4.73-3.367 7.776 0 1.362.16 2.645.561 3.847.481 1.203 1.042 2.245 1.604 2.966a11.62 11.62 0 0 0 2.485 2.325c1.043.722 1.925 1.363 2.726 1.764.882.481 1.925.881 3.047 1.362ZM325.652 160.391c1.924.882 3.367 1.844 4.41 2.726.962.882 1.523 1.763 1.523 2.725 0 1.043-.401 1.844-1.123 2.485-.721.562-1.683.882-2.886.882-1.604 0-3.127-.401-4.731-1.122-1.122-.561-2.084-1.202-2.886-2.004-.481-.481-1.203-.401-1.604.08l-3.448 4.168c-.32.401-.32.882-.08 1.283.962 1.523 2.486 2.726 4.571 3.688 2.485 1.122 5.131 1.683 7.937 1.683 3.849 0 6.896-1.042 9.382-3.207l.4-.32c2.085-2.004 3.368-4.73 3.368-7.535 0-2.004-.401-3.768-1.203-5.211-.802-1.523-1.764-2.645-2.886-3.447-1.203-.882-2.486-1.603-3.849-2.405-1.443-.721-2.726-1.362-3.929-1.843-1.202-.562-2.245-1.203-3.127-2.005-.802-.801-1.283-1.763-1.283-2.885 0-.962.401-1.764 1.123-2.325.802-.561 1.844-.802 3.047-.802 1.283 0 2.325.161 3.207.562.561.24 1.122.641 1.764 1.122.481.401 1.203.32 1.604-.241l3.207-4.489c.32-.481.24-1.122-.161-1.443-2.565-2.244-6.013-3.366-10.423-3.366-3.769 0-6.735 1.042-8.98 3.206-2.245 2.164-3.368 4.73-3.368 7.776 0 1.362.16 2.645.561 3.847.481 1.203 1.043 2.245 1.604 2.966a11.602 11.602 0 0 0 2.486 2.325c1.042.722 1.924 1.363 2.726 1.764.962.481 1.924.881 3.047 1.362ZM50.553 160.391c1.924.882 3.367 1.844 4.41 2.726.962.882 1.523 1.763 1.523 2.725 0 1.042-.401 1.844-1.123 2.485-.721.562-1.684.882-2.886.882-1.604 0-3.127-.401-4.73-1.122-1.123-.561-2.086-1.203-2.887-2.004-.481-.481-1.203-.401-1.604.08l-3.448 4.168c-.32.401-.32.882-.08 1.283.962 1.523 2.486 2.726 4.57 3.687 2.486 1.123 5.132 1.684 7.938 1.684 3.849 0 6.896-1.042 9.381-3.207l.321-.32c2.085-2.004 3.368-4.73 3.448-7.616 0-2.004-.401-3.767-1.203-5.29-.802-1.523-1.764-2.646-2.886-3.447-1.203-.882-2.486-1.603-3.849-2.405-1.443-.722-2.726-1.363-3.929-1.844-1.203-.561-2.245-1.202-3.127-2.004-.802-.801-1.283-1.763-1.283-2.886 0-.962.401-1.763 1.123-2.324.802-.562 1.844-.802 3.047-.802 1.282 0 2.325.16 3.207.561.561.241 1.122.641 1.764 1.122.48.401 1.203.321 1.603-.24l3.208-4.489c.32-.481.24-1.122-.16-1.443-2.567-2.245-6.014-3.367-10.424-3.367-3.769 0-6.735 1.042-8.98 3.207-2.245 2.164-3.368 4.729-3.368 7.775 0 1.363.16 2.646.561 3.848.481 1.202 1.043 2.245 1.604 2.966a11.649 11.649 0 0 0 2.486 2.325c1.042.721 1.924 1.363 2.726 1.763.962.642 1.924 1.042 3.047 1.523Z" fill="#1D1D1B"/><path d="m185.737 67.885-21.328 21.323-12.99-12.987 12.99-12.986 3.848 3.848c.962.962 2.245 1.523 3.608 1.523s2.646-.561 3.608-1.523l5.533-5.531c2.004-2.004 2.004-5.21 0-7.135l-12.909-12.906c-.962-.962-2.245-1.523-3.608-1.523s-2.646.561-3.608 1.523L129.69 72.694c-2.004 2.004-2.004 5.21 0 7.135l31.191 31.183c.962.962 2.245 1.523 3.608 1.523s2.646-.561 3.608-1.523l26.7-26.694 3.688-3.688-12.748-12.745Z" fill="#FBBA00"/><path d="m250.522 79.829-31.19 31.183c-.962.962-2.245 1.523-3.608 1.523s-2.646-.561-3.608-1.523l-12.989-12.987c-2.005-2.004-2.005-5.21 0-7.134l5.532-5.531c.962-.962 2.245-1.443 3.608-1.443s2.646.561 3.608 1.443l3.608 3.607.241.24 12.989-12.985-12.989-12.987-19.324 19.32-.24.24c-1.684 1.603-3.849 2.405-6.094 2.405-2.405 0-4.65-.962-6.334-2.646-1.684-1.683-2.646-3.928-2.646-6.332 0-2.325.802-4.41 2.405-6.093l.241-.24.08-.08.08-.08 28.304-28.298c.962-.962 2.245-1.523 3.608-1.523s2.646.561 3.608 1.523l31.19 31.183c1.925 2.084 1.925 5.29-.08 7.215Z" fill="#E30613"/></svg>