<svg version="1.1" id="logo" xmlns="http://www.w3.org/2000/svg" x="0" y="0" width="146" height="51.5" style="enable-background:new 0 0 146 51.5" xml:space="preserve"><style>.st0{fill:none}.st1{fill:#f3d73e}.st2{opacity:.8;fill:#fff;enable-background:new}</style><path class="st0" d="M90.3 45.7h-1.1v5.1h.9c.7.1 1.5-.2 2-.7.9-1.1.9-2.7 0-3.8-.4-.5-1.1-.7-1.8-.6zM39.1 26.5c.7-.3 1.3-.8 1.8-1.3.7-.8.9-1.8.5-2.8-.2-.4-.7-.7-1.1-.5-1.6.5-2.3 1.9-2.5 3.7-.1.5.3.9.8 1 .2-.1.3-.1.5-.1zM110.1 45.7c-.6-.3-1.3-.1-1.6.5-.4 1.3-.4 2.8 0 4.1.1.2.3.4.5.5.6.3 1.3.1 1.6-.5.4-1.3.4-2.7 0-4.1-.1-.2-.2-.4-.5-.5zM51.3 48.7c-.4-.2-.8-.3-1.2-.3h-1.3v2.4h1.3c.4 0 .8-.1 1.2-.3.3-.2.4-.6.4-.9 0-.4-.1-.7-.4-.9zM42.5 45.8l-.3.9-.8 2h2.1l-.7-2c-.1-.2-.2-.5-.3-.9zM50 47.8c.4 0 .8-.1 1.1-.2.2-.2.4-.5.3-.8 0-.3-.1-.6-.4-.8-.4-.2-.8-.3-1.2-.2h-1.1v2.1H50zM58.6 19.9h-.1c-1.8-.3-3.5-.3-5.3 0-.3 0-.5.2-.6.4-.4.7-.9 1.4-1.6 1.9-.2.1-.3.3-.3.5-.3 2.2-.3 4.4.2 6.5 0 .1 0 .2.1.2 1.1 2.2 3.4 2.4 7.6-1.1-.2-2.5 0-5 .6-7.5.1-.3-.1-.8-.6-.9zM51.3 17zM92.6 6.6c-2.6 2.7-3.9 6.6-4.5 11-.1.5.3.9.8 1 .4 0 .7-.1.9-.5 1.7-3.6 3-6.9 2.8-11.5z"/><path class="st1" d="M27.7 19.5c-.4-.3-.5-.8-.2-1.2.1-.2.3-.3.5-.4 6-1.8 10.5-5.4 7.5-10.8C31.9.7 24 .1 16.9-.1 6-.3 1.8 4.1.2 10.4c-.9 3.8 2.5 3 3.2 1.3C5 8 7.7 4.8 16.8 4.4h.1c8.5.2 13.5 1.9 13.6 5.6v.2c-.5 4.1-3.8 6-9.4 5.4-4.5-.5-5.9 1.9-4 3.4 2.6 2 10.7 1.3 10 7.8-.2 5.8-5.8 8.4-12.9 6.2-3.2-1-2.6-.9-2.7-4.1-.1-5.8.4-11.5 2.8-17 0-.1.1-.1.1-.2 2.5-3.3-1.6-5.2-3.2-3.5-3.7 4.3-7.6 23.4-4.8 26.9.1.1.2.2.4.3 7 2.5 14.1 4.2 19.5.6 7.2-4.8 8-12.1 1.4-16.5zM123.7 16.4c1.8-.3 3.3-1.7 3.3-3s-1.5-2.1-3.3-1.8c-1.8.3-3.3 1.7-3.3 3s1.5 2.1 3.3 1.8z"/><path class="st1" d="m145.9 29.4-.5-.9-.1-.1c-.3-.4-.9-.4-1.3 0-1.3 1.2-2.9 2-4.6 2.4-.4.1-.9-.1-1-.5-1.2-3-.4-6.1.6-9.1.1-.2.1-.3 0-.5-.8-2.5-2.3-2.7-4.5-.3 0 0-.1.1-.1.2-.3.5-.6 1-.9 1.6-.2.3-.4.4-.7.4-.5 0-.9-.4-.9-.8 0-.7-.1-1.3-.2-2 0-.2-.1-.3-.2-.4-1.4-1.3-2.8-1.4-3.6 2.6-.4 2.3-.8 4.6-1.2 6.8 0 .2-.1.4-.3.5-2.8 2.4-4.9 3.4-4.6.1v-.1c.7-3.2 1.4-6.4 2.1-9.5.1-.4-.2-.9-.6-1-1.4-.4-2.6.5-3.6 2.8v.1c-1.2 3.6-1.8 7.7-5.1 9.4-.4.2-.9.1-1.1-.4-.8-1.4-.1-4.6.8-8 .6-2.2-.3-2.9-2.1-2.7-.2 0-.5 0-.7-.2-3.6-2.9-6.9.4-10.2 8.8-.1.1-.1.3-.2.3-1.5 1.2-2.8 2.1-3.8 2-.3 0-.5-.2-.7-.4-1.2-2.1.3-5.4 2.3-9.1.8-1.7-.8-4.5-2.8-2.8L93.2 21c-.3.3-.6.3-1 .2-.4-.2-.6-.7-.4-1.2l2.5-5.2v-.1C97 7.7 96.6 4 93.2 3.6H93c-7.3.2-8.6 10.6-9 22.6 0 .2-.1.5-.3.6-11.6 9.3-20.1 9.6-20.6 0v-.1c.7-6.7 2.6-13 9.7-17.4.1-.1.2-.1.3-.1 3.5-.7 5.2.4 5.4 2.9v.1c-.3 4.1-2.4 6.4-6.6 6.3-3.2-.4-3.9 4.2.9 3.8h.1c4.6-1 8.3-3.5 9.4-10v-.1c.1-4.5-2.4-6.6-6.9-6.9h-.1c-7.2.1-11.3 5.3-14.5 12-.2.4-.7.6-1.1.4-1.1-.4-2.4-.6-3.6-.6-.2 0-.4-.1-.5-.2-.4-.3-.5-.8-.2-1.2 1.2-1.7 1.9-3.7 2.2-5.8v-.2c-.2-3.1-1.3-4.4-3.1-4.5-.2 0-.3 0-.4.1-2.9 1.6-5.3 4.6-6.2 10.5-.1.5-.5.8-1 .7-1.1-.2-2.2-.1-3.3.1-.8.2-1.2.5-.9 1 1.1.7 2.4 1.1 3.7 1.2.5.1.8.5.7 1-.4 2.2-.4 4.5.1 6.8.1.3-.1.7-.4.9-4.3 2.8-7.3 3.9-8.3 2.2 0-.1-.1-.1-.1-.2-.1-.5.1-.9.6-1.1 5.5-1.8 8.5-7.7 2.5-10.3-.1 0-.2-.1-.4-.1-2.9 0-5.1 1.7-6.6 4.8-1.4 2.6-1.4 5.8 0 8.4 0 .1.1.1.1.2 3.4 3.9 7.7 3 12.4-.3.4-.3.9-.2 1.2.2 2.5 3.5 6 3.1 10.2.3.4-.3 1-.1 1.2.3 6 9.7 16.9 4.1 23.9-1.3.5 3.6 1.5 4.4 3.1 1.8 0 0 0-.1.1-.1 1-2.5 2.4-4.8 4-7 .2-.2.5-.4.9-.3.5.1.8.6.7 1-2.3 9.7 3.9 8.6 7.8 6.1.4-.2.9-.2 1.2.2l.5.5c2.1 1.8 5.2 1.6 7-.4.4-.3.9-.3 1.3.1.2.2.3.4.5.6 1.6 1.5 4.2 1.4 5.7-.2.4-.3.9-.3 1.2 0 1.7 1.8 4.4 1.5 7.9-.6.4-.2 1-.1 1.2.3.9 1.6 2 1.9 3.4.6 1.1-1 1.2-3.8 3-6.3.2-.2.4-.4.7-.4.5 0 .9.4.9.9-.3 5.7 1.2 7.2 3.7 6.5.1 0 .1 0 .2-.1l7-3.8c.5.3.6-.2.4-.6zm-108-3.8c.2-1.8.9-3.2 2.5-3.7.4-.2.9.1 1.1.5.3 1 .1 2-.5 2.8-.5.6-1.1 1-1.8 1.3-.1.1-.3.1-.4.1-.6-.1-1-.6-.9-1zm15.3-15c.3-.4.8-.5 1.2-.2.2.2.4.4.4.7 0 2.2-2.1 4.3-3.5 5.9 0-2.3.7-4.5 1.9-6.4zm6 10.4c-.6 2.4-.8 5-.6 7.5-4.2 3.5-6.4 3.3-7.6 1.1 0-.1-.1-.2-.1-.2-.5-2.1-.5-4.4-.2-6.5 0-.2.1-.4.3-.5.7-.5 1.2-1.2 1.6-1.9.1-.2.3-.4.6-.4 1.8-.3 3.5-.3 5.3 0h.1c.5-.1.7.4.6.9zm30.5-2.9c-.2.3-.5.5-.9.5-.5-.1-.8-.5-.8-1 .7-4.5 2-8.3 4.5-11 .3 4.6-1 7.9-2.8 11.5zm16.2 13c-3.4-1.7 1.6-9.1 4.2-9.3-.9 4.8-1.8 10.5-4.2 9.3z"/><path class="st2" d="M42.9 45h-.6l-2.5 6.5h.8l.8-2H44l.8 2h.8L42.9 45zm-1.4 3.7.8-2 .3-.9c.1.4.2.7.3.9l.7 2h-2.1zM20.2 51.4h3.6v-.6H21v-2.4h2.7v-.6H21v-2.1h2.8V45h-3.6zM51.1 48.1c.3-.1.7-.3.9-.5.2-.3.3-.6.3-.9 0-.5-.2-.9-.6-1.2-.6-.3-1.2-.4-1.9-.4H48v6.4h2.2c.6 0 1.2-.1 1.6-.5.4-.3.6-.8.6-1.3.1-.9-.5-1.6-1.3-1.6zm-2.3-2.4h1.1c.4 0 .8.1 1.2.2.3.2.4.5.4.8 0 .3-.1.6-.3.8-.3.2-.7.3-1.1.2h-1.2v-2h-.1zm2.5 4.8c-.3.2-.8.3-1.2.3h-1.3v-2.4h1.3c.4 0 .9.1 1.2.3.3.2.4.5.4.9 0 .3-.1.7-.4.9zM33 45.7h2v5.7h.8v-5.7h2V45H33zM30.3 48.7c-.4-.4-.9-.6-1.4-.8-.3-.1-.6-.2-.9-.4-.2-.1-.3-.2-.4-.4-.1-.2-.1-.4-.1-.5 0-.3.1-.5.3-.7.3-.2.6-.3.9-.3.5 0 1.1.1 1.5.3l.2-.6c-.6-.2-1.2-.4-1.8-.4-.5 0-1 .1-1.5.4-.4.3-.6.7-.6 1.2 0 .4.1.8.4 1.1.4.4.8.6 1.3.8.3.1.6.2 1 .4.2.1.3.2.4.4.1.2.1.4.1.5 0 .3-.1.6-.4.8-.3.2-.7.3-1.1.3-.6 0-1.2-.1-1.8-.4v.7c.6.2 1.2.3 1.8.3.6 0 1.2-.1 1.7-.5.4-.3.6-.8.6-1.3.2-.3.1-.6-.2-.9zM111.2 45.8c-.6-.9-1.8-1.1-2.7-.5-.2.1-.4.3-.5.5-.4.8-.6 1.6-.5 2.5-.1.9.1 1.7.5 2.5.3.5.9.9 1.6.8.6 0 1.3-.3 1.6-.8.4-.8.6-1.6.5-2.5.1-.9-.1-1.8-.5-2.5zm-.6 4.5c-.3.6-1 .8-1.6.5-.2-.1-.4-.3-.5-.5-.4-1.3-.4-2.8 0-4.1.3-.6 1-.8 1.6-.5.2.1.4.3.5.5.5 1.3.5 2.7 0 4.1zM101.4 50.8l1.4-1.4c.5-.4.9-1 1.3-1.5.2-.4.3-.8.3-1.2 0-.5-.2-.9-.5-1.2-.4-.3-.9-.5-1.4-.5-.7 0-1.4.3-1.9.7l.4.5c.2-.2.5-.4.8-.5.2-.1.5-.1.8-.1.3 0 .6.1.9.3.2.2.3.5.3.8 0 .2 0 .5-.1.7-.1.2-.2.5-.4.7-.3.4-.7.8-1 1.1l-1.7 1.7v.6h4.2v-.7h-3.4zM124 48.1c.4-.1.7-.3 1-.6.2-.3.4-.6.3-1 0-.5-.2-.9-.5-1.2-.4-.3-.9-.5-1.5-.4-.4 0-.7.1-1.1.2-.3.1-.6.3-.9.5l.4.5c.3-.2.6-.3.9-.4.3-.1.5-.1.8-.1.3 0 .6.1.9.3.2.2.3.5.3.7 0 .4-.1.7-.4.9-.3.2-.8.4-1.2.3h-.6v.6h.6c1.2 0 1.8.4 1.8 1.2 0 .9-.6 1.3-1.7 1.3-.6 0-1.2-.2-1.8-.4v.7c.3.1.5.2.8.3.3.1.6.1.9.1.6 0 1.3-.1 1.8-.5.4-.3.7-.9.6-1.4 0-.4-.1-.8-.4-1-.1-.4-.6-.6-1-.6zM116.5 45l-1.7 1.3.4.5c.6-.5 1-.8 1-.9l.2-.2V51.4h.7V45h-.6zM92.8 45.9c-.6-.6-1.5-.9-2.3-.8h-2v6.4h1.8c.9.1 1.8-.2 2.5-.8.6-.7.9-1.5.9-2.4-.1-1-.4-1.8-.9-2.4zm-.7 4.2c-.6.5-1.3.7-2 .7h-.9v-5.1h1.1c.7-.1 1.4.2 1.9.6.8 1.1.8 2.7-.1 3.8zM56.5 50.8V45h-.8v6.4h3.6v-.6zM69.7 48.7c-.4-.4-.9-.6-1.4-.8-.3-.1-.6-.2-.9-.4-.2-.1-.3-.2-.4-.4-.1-.2-.1-.4-.1-.5 0-.3.1-.5.3-.7.3-.2.6-.3.9-.3.5 0 1.1.1 1.5.3l.2-.7c-.6-.2-1.2-.4-1.8-.4-.5 0-1 .1-1.5.4-.4.3-.6.7-.6 1.2 0 .4.1.8.4 1.1.4.4.8.6 1.3.8.3.1.6.2 1 .4.2.1.3.2.4.4.1.2.1.4.1.5 0 .3-.1.6-.4.8-.3.2-.7.3-1.1.3-.6 0-1.2-.1-1.8-.4v.7c.6.2 1.2.3 1.8.3.6 0 1.2-.1 1.7-.5.4-.3.6-.8.6-1.3.2-.2.1-.5-.2-.8zM62.2 45h.7v6.4h-.7zM77.4 45v2.8H74V45h-.8v6.4h.8v-3h3.4v3h.7V45zM81.7 51.4h3.5v-.6h-2.8v-2.4h2.7v-.6h-2.7v-2.1h2.8V45h-3.5z"/></svg>