<svg width="479" height="151" xmlns="http://www.w3.org/2000/svg" xmlns:xlink="http://www.w3.org/1999/xlink"><defs><path d="M29.308 115.329c-3.27-1.42-6.464-3.85-9.583-7.292-3.118-3.441-5.172-7.012-6.162-10.711-.473-13.81-.452-31.748.065-53.816-3.012.301-2.355-.095-7.861.851-.86-2.796-1.474-6.098-1.84-9.905-.365-3.807-.333-7.388.097-10.744 7.773-.71 16.76-1.173 26.96-1.386l-1.03-19.892h15.763l3.659 19.137c5.486-.08 10.067-.08 13.744 0 5.248 2.237 10.184 6.087 14.809 11.55 4.624 5.464 7.99 10.948 10.098 16.455-1.204 2.71-3.076 5.495-5.614 8.356-2.538 2.86-5.334 5.173-8.388 6.937l.064 1.032c4.345 1.936 8.303 4.861 11.873 8.776 3.57 3.914 5.808 7.872 6.711 11.873-.946 5.463-4.022 11.077-9.227 16.841-5.205 5.765-10.798 9.722-16.777 11.873-2.065.148-5.365.304-9.9.469v19.46l-16.932 1.633V115.71c-4.588-.14-8.098-.267-10.53-.381ZM37.374 61.9l17.035-.838c3.656-2.883 6.366-5.614 8.13-8.195-.645-1.98-1.882-4.076-3.71-6.292-1.828-2.215-3.754-3.968-5.775-5.259-4.861-.086-10.045-.021-15.551.194-.086 8.862-.13 15.658-.13 20.39Zm.774 34.651c7.442.086 14.239-.172 20.39-.774 2.065-.817 3.883-2.183 5.453-4.097 1.57-1.915 2.506-3.71 2.807-5.388-1.549-3.442-4.474-6.453-8.776-9.034l-20.455 1.097c.13 6.108.323 12.174.58 18.196Z" id="a"/></defs><g fill="none" fill-rule="evenodd"><path d="M397.493 137.67a11.797 11.797 0 0 1-.888 2.397c-.442.94-1.203 1.604-2.282 1.992-2.27.885-5.237 1.307-8.903 1.266-3.666-.042-6.634-.575-8.903-1.598-.791-.38-1.625-.927-2.5-1.64h-19.093l-.345.204c-.854.461-1.65.773-2.39.935-2.908.67-5.829.923-8.76.761a30.483 30.483 0 0 1-6.126-1.9H312.87c-1.82.509-3.794.906-5.923 1.19-2.505.335-4.773.468-6.805.399-1.118-.039-2.265-.569-3.44-1.59h-4.667c-.289.502-.819.812-1.589.932-4.686.739-9.338.82-13.955.242-.972-.123-1.984-.619-3.036-1.486l-12.639-.407c-.126 1.016-.73 1.612-1.813 1.79-1.985.346-4.213.536-6.683.57-2.47.035-4.652-.074-6.545-.328-1.2-.162-2.516-.958-3.948-2.39a13.534 13.534 0 0 1-.256-.263l-14.932-.482c-2.162 1.703-4.394 2.933-6.697 3.689a8.17 8.17 0 0 1-2.528.311c-3.717-.115-7.532-.582-11.445-1.402-3.913-.82-7.081-1.807-9.505-2.96-.426-.202-.83-.418-1.216-.65l-7.863-.254c-.865 1.206-1.798 2.222-2.8 3.05-.715.554-1.523.9-2.423 1.039-3.024.485-6.516.79-10.475.918-3.96.127-7.197.086-9.714-.121-2.47-.162-5.586-2.044-9.35-5.645-.129-.121-.257-.246-.384-.374l-5.483-.177a13.588 13.588 0 0 1-.193 1.59c-.184 1.039-.808 1.731-1.87 2.078-3.047 1.085-6.937 1.795-11.67 2.13-4.732.334-8.356.27-10.873-.191-2.124-.3-4.276-1.299-6.458-2.996a25.7 25.7 0 0 1-3.585-3.403L74.9 131.9l-1.76 14.18c-16.658 2.303-25.206 3.453-25.645 3.453-.438 0-.846-5.665-1.226-16.997-2.13-.798-3.563-1.381-4.299-1.749-4.388-2.237-6.278-4.85-11.225-10.12s-8.238-10.163-9.872-14.68c-.474-1.377-.732-2.947-.775-4.71-.3-10.024-.365-22.8-.193-38.33-1.506.13-3.764-1.14-6.776-3.807-3.011-2.667-4.818-4.947-5.42-6.84-1.032-3.183-1.731-6.872-2.097-11.066-.366-4.194-.29-7.883.226-11.066.387-2.237 1.742-3.463 4.065-3.678 6.673-.583 16.094-1.276 28.263-2.08L36.558 6.794a2 2 0 0 1 1.992-2.182h18.856a2 2 0 0 1 1.876 1.307l6.437 17.41h6.323c1.678 0 3.27.365 4.775 1.097 5.477 2.7 11.002 6.922 16.576 12.664l4.814.232c.019-.306.041-.616.068-.93.195-2.364.559-4.37 1.09-6.02.392-1.203 1.23-1.944 2.517-2.224 1.846-.447 3.93-.783 6.25-1.006-1.565-1.539-2.754-2.979-3.565-4.321-1.23-1.958-1.972-4.321-2.223-7.09-.252-2.768.042-5.187.88-7.257.42-1.09 1.19-1.86 2.308-2.307 2.517-1.007 5.593-1.482 9.229-1.426 3.635.056 6.656.6 9.06 1.636 1.623.699 3.16 1.838 4.615 3.419 1.454 1.58 2.335 3.027 2.643 4.341.531 1.846.636 4.125.315 6.838-.322 2.713-1.07 4.978-2.245 6.796-.223.363-.545.727-.965 1.09a11.358 11.358 0 0 1 2.56 3.042c.67 1.16.978 2.188.922 3.083-.044 1.011-.086 2.016-.126 3.016l1.332-.021a41.38 41.38 0 0 1 .032-1.715c.126-3.258.58-5.712 1.363-7.362.392-.923 1.315-1.427 2.769-1.51 2.46-.196 4.6-.35 6.418-.462 0-5.146.014-8.46.042-9.942.056-1.538.755-2.49 2.097-2.853 2.462-.67 5.216-1.006 8.265-1.006 3.048 0 5.747.335 8.096 1.006 1.342.392 2.866 1.524 4.572 3.398s2.587 3.412 2.643 4.615l.21 4.362c2.125.056 3.72.112 4.782.168 1.538.084 3.132.895 4.782 2.433 1.65 1.538 2.727 3.118 3.23 4.74.333.96.58 2.071.738 3.335l2.35-.037c.485-.743 1-1.479 1.548-2.207 3.593-4.782 7.837-8.264 12.731-10.445 1.035-.448 2.042-.685 3.02-.713 3.469-.168 7.14-.021 11.013.44 3.873.462 7.278 1.196 10.214 2.202 1.818.616 3.475 1.776 4.971 3.482 1.496 1.706 2.245 3.272 2.245 4.699 0 .588-.034 1.195-.102 1.82l3.429-.055a34.848 34.848 0 0 1 2.105-2.793c3.51-4.21 7.558-7.166 12.144-8.872 2.098-.56 4.51-.937 7.237-1.133 2.726-.196 5.11-.168 7.152.084 4.363.839 8.635 2.782 12.816 5.83 2.58 1.883 4.89 3.922 6.927 6.118l7.735-.123c.208-1.974.544-3.678 1.006-5.113.391-1.203 1.23-1.944 2.517-2.224 1.845-.447 3.929-.783 6.25-1.006-1.566-1.539-2.755-2.979-3.566-4.321-1.23-1.958-1.971-4.321-2.223-7.09-.252-2.768.042-5.187.881-7.257.42-1.09 1.189-1.86 2.307-2.307 2.517-1.007 5.593-1.482 9.23-1.426 3.635.056 6.655.6 9.06 1.636 1.622.699 3.16 1.838 4.615 3.419 1.454 1.58 2.335 3.027 2.642 4.341.532 1.846.637 4.125.315 6.838s-1.07 4.978-2.244 6.796c-.224.363-.546.727-.965 1.09a11.358 11.358 0 0 1 2.559 3.042c.664 1.148.972 2.167.924 3.055l1.914-.03c.202-2.586.556-4.72 1.063-6.402.336-1.175 1.189-1.916 2.56-2.223 7.186-1.622 12.975-2.28 17.366-1.972.979.056 1.867.49 2.664 1.3.797.811 1.685 2.112 2.664 3.902 3.58-2.909 6.851-4.908 9.816-5.999.979-.336 2.027-.447 3.146-.336 3.608.392 6.95 1.245 10.026 2.56 3.076 1.314 5.628 2.887 7.656 4.719 2.027 1.831 3.628 3.824 4.803 5.977 1.175 2.154 1.832 4.293 1.972 6.419.755 12.025.895 24.428.42 37.209-.029 1.482-.756 2.433-2.182 2.852-.357.111-.719.218-1.086.322l2.573 18.078 13.098-1.265c.334-.755.941-1.228 1.822-1.42 1.417-.343 3.017-.6 4.799-.773-1.203-1.18-2.115-2.286-2.738-3.317-.944-1.503-1.513-3.317-1.707-5.443-.193-2.125.033-3.983.677-5.571.322-.838.912-1.428 1.771-1.772 1.932-.773 4.294-1.138 7.085-1.095 2.792.043 5.11.462 6.957 1.256 1.245.537 2.426 1.412 3.543 2.625 1.116 1.213 1.792 2.324 2.029 3.333.408 1.418.488 3.167.241 5.25s-.821 3.822-1.723 5.217c-.172.28-.419.559-.74.838.11.092.218.187.323.284l11.866.427c1.98-1.727 4.143-3.027 6.49-3.9 1.61-.429 3.462-.719 5.555-.87 2.094-.15 3.924-.128 5.492.065 3.349.644 6.629 2.137 9.839 4.477 3.21 2.34 5.872 4.997 7.987 7.97 2.115 2.975 3.505 5.868 4.17 8.68.451 4.81-.585 9.523-3.108 14.139-2.522 4.616-5.942 8.18-10.257 10.692-.795.43-1.535.72-2.222.87a29.031 29.031 0 0 1-8.149.708 28.292 28.292 0 0 1-8.237-3.016l-3.016.364-14.308-.87.022.56c.043 1.266-.526 1.996-1.707 2.19-1.846.322-3.918.499-6.216.53-2.297.033-4.326-.069-6.087-.305-1.116-.15-2.34-.891-3.671-2.222-.655-.655-1.157-1.295-1.505-1.918l-6.243-.38h-3.768Z" fill="#000" opacity=".655"/><g transform="translate(10.6 5.757)"><mask id="b" fill="#fff"><use xlink:href="#a"/></mask><use fill="#FEE844" xlink:href="#a"/><path d="M74.09 65.901c4.344 1.936 8.302 4.861 11.872 8.776 3.57 3.914 5.808 7.872 6.711 11.873-.946 5.463-4.022 11.077-9.227 16.841-3.47 3.843-7.765 8.63-12.885 14.36l-6.616-.888-5.239 19.418-15.474 1.755 5.03-22.208c-8.107-.12-14.425-.287-18.954-.5l4.646-9.356c10.41.344 19.96.172 28.65-.516 4.043-1.463 7.764-4.108 11.163-7.937 3.398-3.828 5.399-7.528 6-11.098-1.29-4.216-3.785-7.84-7.484-10.873-3.7-3.033-8.54-5.216-14.519-6.55 4.13-3.14 7.83-6.345 11.099-9.614 3.27-3.27 5.42-5.98 6.452-8.13-1.42-3.786-3.731-7.604-6.936-11.454-3.205-3.85-6.636-6.636-10.292-8.356l5.033-9.873c5.248 2.237 10.184 6.087 14.809 11.55 4.624 5.464 7.99 10.948 10.098 16.455-1.204 2.71-3.076 5.495-5.614 8.356-2.538 2.86-5.334 5.173-8.388 6.937l.064 1.032ZM53.053 41.316c-4.861-.086-10.045-.021-15.551.194-.086 8.862-.13 15.658-.13 20.39l-12.066 8.84c0-6.968.15-19.702.452-38.2 11.916-.86 22.692-1.225 32.328-1.096l-5.033 9.872Zm-27.295-8.775L13.628 43.51c-3.012.3-2.801-.044-8.307.902l1.79-10.13c7.872-.818 14.088-1.398 18.648-1.742Zm32.005 36.457.258 8.26-20.455 1.097c.13 6.108.323 12.174.58 18.196l-4.193 9.421c-1.678-.774-3.324-2.054-4.937-3.84-1.613-1.784-2.678-3.602-3.194-5.452a685.9 685.9 0 0 1-.516-25.94l32.457-1.742ZM49.57 21.481 36.895 25.29l2.062-22.856h6.685L49.57 21.48Z" fill="#FEAC44" mask="url(#b)"/></g><path d="M105.91 8.85c2.125-1.034 5.012-1.544 8.662-1.53 3.65.013 6.537.552 8.662 1.615.616 2.041.749 4.334.399 6.88-.35 2.544-1.112 4.544-2.286 5.998-1.93 1.007-4.293 1.545-7.09 1.615-2.796.07-5.16-.384-7.09-1.363-1.258-1.566-2.013-3.706-2.264-6.419-.252-2.712.083-4.978 1.006-6.795Zm18.038 20.766c-.728 15.493-.825 31.252-.294 47.277-4.978.867-10.138.95-15.48.251-.699-13.116-.727-24.498-.083-34.146l-7.258-.378c-.167-1.846-.146-3.901.063-6.167.21-2.265.567-4.167 1.07-5.705 5.537-1.37 12.865-1.748 21.982-1.132Zm50.59-.336c.616 1.762.903 4.14.86 7.131-.041 2.993-.44 5.244-1.195 6.754-5.034-.056-8.935-.084-11.704-.084.42 12.809.727 24.08.923 33.812-5.286.839-10.683.923-16.192.251-.56-12.5-.91-23.813-1.05-33.937l-10.109.252c-.56-1.93-.77-4.272-.63-7.027.14-2.754.546-4.887 1.217-6.397 4.503-.391 7.635-.63 9.397-.713-.028-2.797-.014-7.02.042-12.669 2.349-.67 4.936-1.007 7.76-1.007 2.825 0 5.342.336 7.551 1.007l.546 12.291c4.307 0 8.502.112 12.585.336Zm21.185 47.613c-4.279-2.545-7.572-6.174-9.879-10.886-2.307-4.713-3.377-9.88-3.21-15.5.532-3.077 1.595-6.167 3.189-9.271 1.594-3.105 3.775-6.013 6.544-8.726 2.769-2.713 5.831-4.74 9.187-6.083 3.748-.28 7.586-.188 11.515.273 3.93.462 7.334 1.21 10.215 2.244 0 2.098-.455 4.447-1.364 7.048-.908 2.6-1.978 4.642-3.209 6.125-3.58-1.37-8.124-1.86-13.633-1.469-1.426 1.147-2.629 2.741-3.608 4.783a20.686 20.686 0 0 0-1.888 6.418 15.76 15.76 0 0 0 1.636 6.88c1.063 2.153 2.531 3.83 4.405 5.033 1.65.364 4.048.399 7.194.105 3.147-.293 6.118-.888 8.915-1.782.81.978 1.391 2.936 1.74 5.872.35 2.937.343 5.16-.02 6.67-3.608 1.343-8.285 2.224-14.032 2.643-5.748.42-10.313.294-13.697-.377Zm60.156.964c-4.895-1.006-9.215-3.076-12.963-6.208-3.747-3.132-6.537-6.81-8.369-11.033-1.832-4.223-2.566-8.557-2.202-13.004.867-4.559 2.93-8.733 6.187-12.522 3.259-3.79 6.873-6.44 10.844-7.95 4.083-1.034 8.488-1.342 13.214-.922 3.412.699 6.635 2.09 9.67 4.174 3.034 2.083 5.551 4.53 7.55 7.34 2 2.811 3.378 5.727 4.133 8.747.363 3.888-.161 7.817-1.573 11.788a34.361 34.361 0 0 1-6.23 10.802c-2.74 3.23-5.887 5.782-9.438 7.656-3.189.95-6.796 1.328-10.823 1.132Zm4.153-13.591c2.153-1.007 4.04-2.923 5.663-5.747 1.622-2.825 2.447-5.803 2.475-8.935-.783-2.797-2.224-5.14-4.321-7.027-2.098-1.888-4.573-2.846-7.425-2.873-1.902.615-3.6 1.894-5.097 3.838-1.496 1.944-2.384 4.076-2.664 6.397-.196 2.825.77 5.712 2.895 8.663 2.125 2.95 4.95 4.845 8.474 5.684ZM297.996 8.85c2.125-1.035 5.013-1.545 8.662-1.531 3.65.013 6.537.552 8.663 1.615.615 2.041.748 4.334.398 6.88-.35 2.544-1.111 4.544-2.286 5.998-1.93 1.007-4.293 1.545-7.09 1.615-2.796.07-5.16-.384-7.089-1.363-1.258-1.566-2.013-3.706-2.265-6.419-.252-2.712.084-4.978 1.007-6.795Zm18.038 20.765c-.727 15.493-.825 31.252-.294 47.277-4.978.867-10.137.95-15.479.251-.7-13.116-.727-24.498-.084-34.146l-7.257-.378c-.168-1.846-.147-3.901.063-6.167.21-2.265.566-4.167 1.07-5.705 5.537-1.37 12.864-1.748 21.981-1.132Zm65.567 6.921c.783 11.606.937 24.499.461 38.678-2.405.727-5.068 1.3-7.99 1.72-2.923.42-5.587.587-7.992.503.14-5.789.133-11.844-.021-18.164-.154-6.32-.427-11.13-.818-14.43-.336-.812-.86-1.595-1.573-2.35-.714-.755-1.392-1.244-2.035-1.468-3.496.95-6.53 2.265-9.103 3.943-.14 8.362.28 18.947 1.259 31.756-5.342.867-10.81.95-16.403.252-1.37-12.92-1.748-24.527-1.132-34.818l-8.055.041c-.167-1.985-.146-4.285.063-6.9.21-2.615.567-4.734 1.07-6.356 6.097-1.538 11.872-2.223 17.325-2.055l2.181 7.55 1.091.253c5.37-4.95 9.914-7.957 13.634-9.02 5.174.364 9.306 1.567 12.396 3.608 3.09 2.042 4.97 4.46 5.642 7.257Z" fill="#FEE844"/><path d="m107.168 22.065 3.356-6.628c2.992-.056 5.411-.07 7.257-.042l5.453-6.46c.616 2.041.749 4.334.399 6.88-.35 2.544-1.112 4.544-2.286 5.998-1.93 1.007-4.293 1.545-7.09 1.615-2.796.07-5.16-.384-7.09-1.363Zm16.78 7.55c-.728 15.494-.825 31.253-.294 47.278-4.978.867-10.138.95-15.48.251l7.426-5.285c-.308-12.949-.168-24.806.42-35.573l7.928-6.67Zm-19.255 6.754c4.446-.251 8.222-.28 11.326-.083l-7.928 6.712-7.258-.378 3.86-6.25Zm49.5-.46c-.084-2.826-.182-7.23-.294-13.215l7.51-6.04.545 12.29-7.76 6.964Zm-6.963 41.235 7.928-5.956c-.587-20.584-.909-32.343-.965-35.28a357.135 357.135 0 0 1 15.396.084l4.95-6.712c.615 1.762.902 4.14.86 7.131-.042 2.993-.44 5.244-1.196 6.754-5.034-.056-8.935-.084-11.704-.084.42 12.809.727 24.08.923 33.812-5.286.839-10.683.923-16.192.251Zm6.963-41.236-8.012 7.3-10.11.251 5.16-7.09c4.67-.223 8.99-.377 12.962-.46Zm50.885 4.74c-1.426 1.147-2.629 2.741-3.608 4.783a20.686 20.686 0 0 0-1.888 6.418 15.76 15.76 0 0 0 1.636 6.88c1.063 2.153 2.531 3.83 4.405 5.033l-4.95 6.545c-3.048-1.902-5.418-4.559-7.11-7.97-1.692-3.413-2.51-7.132-2.454-11.16.559-3.523 1.93-6.949 4.11-10.277 2.182-3.328 4.88-5.789 8.097-7.383 4.53-.336 8.991-.07 13.382.797l6.586-5.37c0 2.098-.455 4.447-1.364 7.048-.908 2.6-1.978 4.642-3.209 6.125-3.58-1.37-8.124-1.86-13.633-1.469Zm-9.355 36.245 4.95-6.586c2.014.391 4.684.524 8.012.398 3.328-.126 6.46-.51 9.397-1.153l3.65-7.467c.81.978 1.391 2.936 1.74 5.872.35 2.937.343 5.16-.02 6.67-3.608 1.343-8.285 2.224-14.032 2.643-5.748.42-10.313.294-13.697-.377ZM259.99 32.93l2.6-6.712c3.412.699 6.635 2.09 9.67 4.174 3.034 2.083 5.551 4.53 7.55 7.34 2 2.811 3.378 5.727 4.133 8.747.363 3.888-.161 7.817-1.573 11.788a34.361 34.361 0 0 1-6.23 10.802c-2.74 3.23-5.887 5.782-9.438 7.656-3.189.95-6.796 1.328-10.823 1.132l1.761-6.88a21.157 21.157 0 0 0 6.041-.628c3.72-2.014 6.775-5.132 9.166-9.355 2.391-4.223 3.475-8.544 3.251-12.963-.923-3.635-2.873-6.9-5.852-9.795-2.978-2.894-6.397-4.663-10.256-5.306Zm-2.35 38.048c-3.58-.811-6.732-2.412-9.46-4.803-2.726-2.392-4.74-5.125-6.04-8.202-1.3-3.076-1.839-6.152-1.615-9.228.587-3.356 2.014-6.44 4.279-9.25 2.265-2.81 4.838-4.79 7.719-5.936 2.517-.587 5.006-.797 7.467-.63l-3.566 6.755c-1.902.615-3.6 1.894-5.097 3.838-1.496 1.944-2.384 4.076-2.664 6.397-.196 2.825.77 5.712 2.895 8.663 2.125 2.95 4.95 4.845 8.474 5.684l-2.392 6.712Zm41.614-48.913 3.356-6.628c2.993-.056 5.412-.07 7.257-.042l5.454-6.46c.615 2.041.748 4.334.398 6.88-.35 2.544-1.111 4.544-2.286 5.998-1.93 1.007-4.293 1.545-7.09 1.615-2.796.07-5.16-.384-7.089-1.363Zm16.78 7.55c-.727 15.494-.825 31.253-.294 47.278-4.978.867-10.137.95-15.479.251l7.425-5.285c-.308-12.949-.168-24.806.42-35.573l7.928-6.67Zm-19.255 6.754c4.447-.251 8.222-.28 11.327-.083l-7.929 6.712-7.257-.378 3.86-6.25Zm47.487 9.397-2.769-11.284 5.16-7.593 2.181 7.55-4.572 11.327Zm-6.88 31.21 7.719-6.208c-.727-9.928-1.007-18.262-.839-25.002 2.517-2.629 5.495-5.153 8.935-7.572 3.44-2.419 6.572-4.034 9.397-4.845 2.88.308 5.272 1.154 7.173 2.538 1.902 1.384 3.119 2.985 3.65 4.803l-8.18 4.153c-.336-.81-.86-1.594-1.573-2.349-.714-.755-1.392-1.244-2.035-1.468-3.496.95-6.53 2.265-9.103 3.943-.252 6.908.168 17.493 1.259 31.756-5.342.867-10.81.95-16.403.252Zm-2.643-42.243c2.601-.251 4.853-.335 6.754-.251l-5.243 7.677-8.055.041 6.544-7.467Zm47.32 40.482c-2.406.727-5.07 1.3-7.992 1.72-2.922.42-5.586.587-7.991.503l8.138-6.964c.14-12.081-.126-22.01-.797-29.784l8.18-4.153c.783 11.606.937 24.499.461 38.678Z" fill="#FEAC44"/><path d="M117.302 134.82c-3.532-2.102-6.25-5.097-8.155-8.987-1.905-3.89-2.788-8.155-2.65-12.795.44-2.54 1.317-5.09 2.633-7.653 1.316-2.563 3.116-4.964 5.402-7.203 2.285-2.24 4.813-3.913 7.584-5.021a49.667 49.667 0 0 1 9.505.225c3.244.38 6.054.998 8.432 1.852 0 1.732-.375 3.671-1.125 5.818s-1.633 3.832-2.65 5.056c-2.954-1.131-6.706-1.535-11.254-1.212-1.177.946-2.17 2.262-2.978 3.948a17.076 17.076 0 0 0-1.558 5.298 13.009 13.009 0 0 0 1.35 5.679c.878 1.778 2.09 3.163 3.637 4.155 1.362.3 3.341.33 5.938.087 2.598-.242 5.05-.733 7.359-1.472.67.808 1.149 2.424 1.437 4.848.289 2.424.283 4.26-.017 5.506-2.978 1.108-6.84 1.836-11.584 2.182-4.744.346-8.512.242-11.306-.312Zm63.475-37.296c1.362 3.117 2.349 7.445 2.96 12.986.612 5.54.78 10.596.503 15.167-.439 1.685-1.2 3.36-2.286 5.021-1.085 1.663-2.274 2.955-3.567 3.879-3.37.623-7.324.993-11.86 1.108-4.536.115-8.524-.08-11.964-.589-1.94-1.593-3.538-4.01-4.796-7.254-1.259-3.244-1.865-6.251-1.818-9.021.484-1.34 1.206-2.707 2.164-4.104.958-1.396 1.945-2.464 2.96-3.203 5.08-1.339 11.14-2.008 18.18-2.008a67.082 67.082 0 0 0-.726-4.052c-5.587-1.016-12.132-1.316-19.635-.9-.3-1.847-.364-3.833-.19-5.957.173-2.123.594-3.89 1.264-5.298a88.414 88.414 0 0 1 16.847.64c5.598.751 9.586 1.946 11.964 3.585Zm-9.038 26.768c.115-1.985.15-4.052.104-6.198-4.71.23-8.45.865-11.22 1.904-.07 2.009.577 3.867 1.939 5.575 3.417-.092 6.476-.52 9.177-1.28Zm42.455 11.635c-3.486-.046-7.278-.461-11.376-1.246-4.098-.785-7.416-1.813-9.956-3.082.023-1.963.456-3.965 1.299-6.008.842-2.043 1.84-3.608 2.995-4.693 2.447 1.016 5.339 1.963 8.675 2.84 3.336.877 6.02 1.35 8.05 1.42.44-.577.774-1.385 1.005-2.424.231-1.04.277-1.974.139-2.805-5.24-1.34-11.116-2.447-17.626-3.325-.74-.577-1.438-1.402-2.095-2.475-.658-1.074-1.126-2.119-1.403-3.134.092-3.163.912-6.407 2.459-9.731 1.546-3.324 3.497-5.783 5.852-7.376 3.902-.623 8.01-.883 12.328-.78 4.317.105 7.976.514 10.977 1.23.485 1.524.554 3.4.208 5.627-.346 2.228-.935 3.861-1.766 4.9-1.893-.646-4.346-1.142-7.359-1.489-3.012-.346-5.673-.438-7.982-.277-.854 1.016-1.35 2.401-1.489 4.156 5.195.577 10.55 1.581 16.068 3.012 1.478 1.016 2.81 2.655 4 4.918 1.189 2.262 1.83 4.432 1.922 6.51-1.04 3.001-2.996 5.916-5.87 8.744-2.874 2.828-5.893 4.657-9.055 5.488Zm40.515-40.134c-.6 12.79-.68 25.798-.242 39.026-4.11.716-8.369.785-12.778.208-.577-10.827-.6-20.223-.07-28.188l-5.99-.312c-.139-1.523-.121-3.22.052-5.09.173-1.87.467-3.44.883-4.71 4.57-1.13 10.62-1.442 18.145-.934Zm54.125 5.713c.647 9.58.774 20.224.381 31.928-1.985.6-4.184 1.074-6.597 1.42-2.412.346-4.611.485-6.597.415.116-4.778.11-9.776-.017-14.994-.127-5.217-.352-9.188-.675-11.912-.277-.67-.71-1.316-1.299-1.94-.588-.623-1.148-1.027-1.68-1.211-2.885.785-5.39 1.87-7.514 3.255-.115 6.902.231 15.64 1.04 26.214-4.41.715-8.923.785-13.54.207-1.132-10.665-1.443-20.246-.936-28.741l-6.648.034c-.139-1.639-.122-3.538.052-5.696.173-2.159.467-3.908.883-5.247 5.032-1.27 9.8-1.835 14.301-1.696l1.801 6.233.9.208c4.433-4.087 8.184-6.568 11.255-7.446 4.27.3 7.682 1.293 10.233 2.979 2.55 1.685 4.103 3.682 4.657 5.99Zm30.612 34.11c-4.04-.831-7.607-2.54-10.7-5.125-3.094-2.586-5.397-5.622-6.909-9.108-1.512-3.486-2.118-7.064-1.818-10.735.716-3.763 2.419-7.208 5.108-10.336 2.69-3.129 5.673-5.316 8.952-6.563 3.37-.854 7.006-1.108 10.908-.761 2.816.577 5.477 1.725 7.982 3.445 2.504 1.72 4.582 3.74 6.233 6.06 1.65 2.32 2.787 4.727 3.41 7.22.3 3.21-.132 6.453-1.298 9.731a28.365 28.365 0 0 1-5.142 8.917c-2.263 2.666-4.86 4.773-7.792 6.32-2.632.785-5.61 1.096-8.934.935Zm3.428-11.22c1.778-.831 3.336-2.413 4.675-4.744 1.34-2.332 2.02-4.79 2.043-7.376-.646-2.309-1.835-4.242-3.566-5.8-1.732-1.559-3.775-2.35-6.13-2.373-1.57.508-2.972 1.565-4.207 3.169-1.235 1.604-1.968 3.365-2.2 5.28-.16 2.333.636 4.716 2.39 7.152 1.755 2.435 4.086 4 6.995 4.692Z" fill="#F6F6F6"/><path d="M125.024 104.9c-1.177.946-2.17 2.262-2.978 3.948a17.076 17.076 0 0 0-1.558 5.298 13.009 13.009 0 0 0 1.35 5.679c.878 1.778 2.09 3.163 3.637 4.155l-4.087 5.403c-2.516-1.57-4.473-3.763-5.87-6.58-1.396-2.816-2.071-5.887-2.025-9.211.462-2.91 1.593-5.737 3.394-8.484 1.8-2.748 4.028-4.78 6.683-6.095a41.097 41.097 0 0 1 11.047.658l5.436-4.433c0 1.732-.375 3.671-1.125 5.818s-1.633 3.832-2.65 5.056c-2.954-1.131-6.706-1.535-11.254-1.212Zm-7.722 29.92 4.086-5.437c1.663.323 3.867.432 6.614.328 2.748-.103 5.333-.42 7.757-.952l3.013-6.164c.67.808 1.149 2.424 1.437 4.848.289 2.424.283 4.26-.017 5.506-2.978 1.108-6.84 1.836-11.584 2.182-4.744.346-8.512.242-11.306-.312Zm63.475-37.296c1.362 3.117 2.349 7.445 2.96 12.986.612 5.54.78 10.596.503 15.167-.439 1.685-1.2 3.36-2.286 5.021-1.085 1.663-2.274 2.955-3.567 3.879-3.37.623-7.324.993-11.86 1.108-4.536.115-8.524-.08-11.964-.589l4.017-4.779c2.331.231 5.067.266 8.207.104 3.14-.161 5.829-.484 8.068-.97.693-.507 1.328-1.205 1.905-2.094.577-.89.993-1.784 1.246-2.684.162-2.978.104-6.614-.173-10.908-.461-5.079-1.177-9.177-2.147-12.293l5.09-3.948Zm-29.885 7.03 4.433-5.818c9.28 0 16.067.912 20.361 2.736l-5.16 3.982c-5.586-1.016-12.131-1.316-19.634-.9Zm20.95 13.54c-4.709.23-8.449.865-11.22 1.904-.068 2.009.578 3.867 1.94 5.575l-3.982 4.744c-1.27-1.2-2.303-2.822-3.1-4.865-.796-2.043-1.194-3.988-1.194-5.835.646-1.685 1.57-3.001 2.77-3.948 4.779-1.408 11.705-2.043 20.777-1.904l-5.99 4.329Zm36.776-14.995c-.854 1.016-1.35 2.401-1.489 4.156l-4.744 4.71c-.877-.716-1.5-1.732-1.87-3.048.093-1.962.583-3.936 1.472-5.922.889-1.985 2.026-3.497 3.41-4.536 4.872-.646 9.997-.543 15.376.312l4.744-4.433c.485 1.524.554 3.4.208 5.627-.346 2.228-.935 3.861-1.766 4.9-1.893-.646-4.346-1.142-7.359-1.489-3.012-.346-5.673-.438-7.982-.277Zm10.32 11.947 4.26-4.779c1.477 1.016 2.81 2.655 3.999 4.918 1.189 2.262 1.83 4.432 1.922 6.51-1.04 3.001-2.996 5.916-5.87 8.744-2.874 2.828-5.893 4.657-9.055 5.488-3.486-.046-7.278-.461-11.376-1.246-4.098-.785-7.416-1.813-9.956-3.082l5.922-4.017a60.846 60.846 0 0 0 7.964 2.095c2.794.542 5.23.825 7.307.848 1.778-.67 3.44-1.939 4.987-3.809 1.546-1.87 2.574-3.763 3.082-5.679-.07-1.062-.422-2.187-1.057-3.376-.634-1.19-1.344-2.06-2.13-2.615Zm-16.553-3.082a126.304 126.304 0 0 1 16.553 3.082l-3.913 4.883c-5.24-1.34-11.116-2.447-17.626-3.325l4.986-4.64Zm52.324-16.171c-.6 12.79-.68 25.798-.242 39.026-4.11.716-8.369.785-12.778.208l6.13-4.363c-.255-10.689-.14-20.477.345-29.365l6.545-5.506Zm-15.894 5.575c3.67-.208 6.787-.231 9.35-.07l-6.545 5.541-5.991-.312 3.186-5.16Zm39.2 7.757-2.286-9.316 4.26-6.267 1.8 6.233-3.775 9.35Zm-5.68 25.763 6.372-5.125c-.6-8.195-.831-15.075-.693-20.638 2.078-2.17 4.537-4.254 7.376-6.25 2.84-1.998 5.426-3.331 7.757-4 2.378.253 4.352.952 5.922 2.095 1.57 1.142 2.574 2.464 3.013 3.965l-6.753 3.428c-.277-.67-.71-1.316-1.299-1.94-.588-.623-1.148-1.027-1.68-1.211-2.885.785-5.39 1.87-7.514 3.255-.207 5.702.139 14.44 1.04 26.214-4.41.715-8.923.785-13.54.207Zm-2.181-34.87c2.147-.209 4.005-.278 5.575-.209l-4.329 6.338-6.648.034 5.402-6.164Zm39.061 33.416c-1.985.6-4.184 1.074-6.597 1.42-2.412.346-4.611.485-6.597.415l6.718-5.748c.116-9.973-.103-18.169-.657-24.586l6.752-3.429c.647 9.58.774 20.224.381 31.928Zm33.625-34.906 2.147-5.54c2.816.577 5.477 1.725 7.982 3.445 2.504 1.72 4.582 3.74 6.233 6.06 1.65 2.32 2.787 4.727 3.41 7.22.3 3.21-.132 6.453-1.298 9.731a28.365 28.365 0 0 1-5.142 8.917c-2.263 2.666-4.86 4.773-7.792 6.32-2.632.785-5.61 1.096-8.934.935l1.454-5.68c1.663.07 3.325-.103 4.987-.519 3.07-1.662 5.593-4.236 7.566-7.722 1.974-3.486 2.869-7.053 2.684-10.7-.762-3.002-2.372-5.697-4.83-8.086-2.46-2.39-5.281-3.85-8.467-4.38Zm-1.94 31.409c-2.955-.67-5.557-1.992-7.808-3.965-2.251-1.974-3.913-4.23-4.987-6.77-1.073-2.54-1.518-5.08-1.333-7.619.485-2.77 1.662-5.315 3.532-7.635 1.87-2.32 3.994-3.954 6.372-4.9a20.777 20.777 0 0 1 6.164-.52l-2.944 5.575c-1.57.508-2.972 1.565-4.207 3.169-1.235 1.604-1.968 3.365-2.2 5.28-.16 2.333.636 4.716 2.39 7.152 1.755 2.435 4.086 4 6.995 4.692l-1.974 5.54Z" fill="#C2D6E4"/><path d="M388.969 134.297c-1.91.969-4.746 1.425-8.509 1.37-3.763-.055-6.599-.595-8.508-1.619-.802-2.324-1.079-4.994-.83-8.01s.9-5.492 1.95-7.429c1.827-1.134 4.38-1.888 7.658-2.262 3.279-.374 5.956-.187 8.031.56.803.941 1.356 2.594 1.66 4.96.305 2.366.319 4.752.042 7.16-.277 2.407-.775 4.164-1.494 5.27Z" fill="#FEE844"/><path d="m371.952 134.048 4.649-8.01c2.545-.166 5.215-.277 8.01-.332l4.15-8.799c.803.941 1.356 2.594 1.66 4.96.305 2.366.319 4.752.042 7.16-.277 2.407-.775 4.164-1.494 5.27-1.91.969-4.746 1.425-8.509 1.37-3.763-.055-6.599-.595-8.508-1.619Z" fill="#FEAC44"/><path d="M407.14 83.834c1.633-.795 3.85-1.187 6.651-1.176 2.802.01 5.02.424 6.651 1.24.472 1.567.574 3.328.306 5.282-.268 1.954-.853 3.489-1.755 4.605-1.482.773-3.296 1.186-5.443 1.24-2.147.054-3.961-.295-5.443-1.047-.966-1.202-1.546-2.844-1.739-4.927-.193-2.083.064-3.822.773-5.217Zm13.85 15.942a453.498 453.498 0 0 0-.226 36.296c-3.822.665-7.783.73-11.884.193-.537-10.07-.558-18.808-.064-26.216l-5.572-.29c-.129-1.417-.113-2.995.048-4.734.161-1.739.435-3.199.822-4.38 4.25-1.052 9.876-1.342 16.876-.87Zm27.536 37.037c-3.758-.773-7.075-2.362-9.952-4.767-2.877-2.405-5.019-5.228-6.425-8.47-1.406-3.242-1.97-6.57-1.69-9.984.665-3.5 2.248-6.704 4.75-9.614 2.5-2.909 5.276-4.943 8.325-6.103 3.135-.794 6.516-1.03 10.145-.708 2.62.537 5.094 1.605 7.423 3.204 2.33 1.6 4.262 3.479 5.797 5.636 1.535 2.158 2.593 4.397 3.173 6.715.279 2.985-.124 6.001-1.208 9.05a26.38 26.38 0 0 1-4.783 8.293c-2.104 2.48-4.52 4.44-7.246 5.878-2.448.73-5.217 1.02-8.31.87Zm3.188-10.435c1.653-.773 3.103-2.244 4.348-4.412 1.245-2.169 1.879-4.456 1.9-6.86-.601-2.147-1.707-3.946-3.317-5.395-1.61-1.45-3.51-2.185-5.7-2.206-1.46.472-2.765 1.455-3.914 2.947-1.148 1.492-1.83 3.13-2.045 4.911-.15 2.169.59 4.386 2.223 6.65 1.631 2.266 3.8 3.72 6.505 4.365Z" fill="#F6F6F6"/><path d="m408.107 93.978 2.577-5.088c2.297-.043 4.154-.054 5.571-.032l4.187-4.96c.472 1.567.574 3.328.306 5.282-.268 1.954-.853 3.489-1.755 4.605-1.482.773-3.296 1.186-5.443 1.24-2.147.054-3.961-.295-5.443-1.047Zm12.883 5.798a453.498 453.498 0 0 0-.226 36.296c-3.822.665-7.783.73-11.884.193l5.7-4.058c-.236-9.94-.128-19.044.323-27.31l6.087-5.121Zm-14.783 5.185c3.414-.194 6.312-.215 8.696-.065l-6.087 5.153-5.572-.29 2.963-4.798Zm45.475-2.641 1.997-5.153c2.62.537 5.094 1.605 7.423 3.204 2.33 1.6 4.262 3.479 5.797 5.636 1.535 2.158 2.593 4.397 3.173 6.715.279 2.985-.124 6.001-1.208 9.05a26.38 26.38 0 0 1-4.783 8.293c-2.104 2.48-4.52 4.44-7.246 5.878-2.448.73-5.217 1.02-8.31.87l1.353-5.282a16.243 16.243 0 0 0 4.638-.483c2.856-1.546 5.201-3.94 7.037-7.182 1.836-3.242 2.668-6.56 2.496-9.952-.708-2.791-2.206-5.298-4.493-7.52-2.286-2.222-4.911-3.58-7.874-4.074Zm-1.804 29.21c-2.748-.622-5.169-1.851-7.262-3.687-2.093-1.836-3.64-3.934-4.638-6.296-.998-2.362-1.411-4.724-1.24-7.085.451-2.577 1.546-4.944 3.285-7.102 1.74-2.158 3.715-3.677 5.926-4.557a19.323 19.323 0 0 1 5.733-.483l-2.738 5.185c-1.46.472-2.764 1.455-3.913 2.947-1.148 1.492-1.83 3.13-2.045 4.911-.15 2.169.59 4.386 2.223 6.65 1.631 2.266 3.8 3.72 6.505 4.365l-1.836 5.153Z" fill="#C2D6E4"/></g></svg>