<svg width="150" height="22" fill="none" xmlns="http://www.w3.org/2000/svg"><g clip-path="url(#a)"><path fill-rule="evenodd" clip-rule="evenodd" d="M4.769 16.999v4.995H0V3.896h7.626c1.385 0 2.756.242 3.99.876a6.594 6.594 0 0 1 2.653 2.392 6.255 6.255 0 0 1 .936 3.354 6.396 6.396 0 0 1-.877 3.31 6.013 6.013 0 0 1-2.62 2.334c-1.27.621-2.703.837-4.111.837H4.769Zm110.205-6.062h9.084v4.185h-9.084v2.712h9.299v4.161h-14.067v-18.1h14.067v4.162h-9.299v2.88Zm-35.882-7.88 3.16 3.6-3.05 3.367-1.732-1.907-1.74 1.915-3.05-3.366 3.168-3.61a1.9 1.9 0 0 1-.145-2.012 1.96 1.96 0 0 1 .733-.766 2.024 2.024 0 0 1 2.067 0c.311.185.564.45.732.766a1.9 1.9 0 0 1-.145 2.012h.002ZM69.9 4.921a1.905 1.905 0 0 0-.081-2.292 1.99 1.99 0 0 0-1.03-.668c-.407-.11-.84-.09-1.235.056a1.977 1.977 0 0 0-.962.758 1.903 1.903 0 0 0 .137 2.29c.27.318.636.543 1.046.644v16.288h4.794v-7.39l4.9 5.553 4.902-5.553v7.39h4.793V5.71c.36-.089.688-.274.946-.536a1.893 1.893 0 0 0 .436-2.008 1.94 1.94 0 0 0-.642-.863 2.029 2.029 0 0 0-2.09-.217 1.97 1.97 0 0 0-.816.713 1.904 1.904 0 0 0-.304 1.025v.126l.051-.056-.046.097c.028.332.144.652.337.927l-7.567 8.337-1.463-1.607-3.929-4.326-2.177-2.4Zm75.332 11.025a450.13 450.13 0 0 1 4.175 5.292l.585.759h-5.756l-.146-.178c-1.391-1.696-2.736-3.436-4.073-5.174h-1.861v5.352h-4.744V3.896h8.3a7.597 7.597 0 0 1 3.546.807 5.908 5.908 0 0 1 2.429 2.295 6.516 6.516 0 0 1 .857 3.333 6.336 6.336 0 0 1-1.04 3.568 6.049 6.049 0 0 1-2.272 2.05v-.002Zm-48.936 6.051V3.896h4.769v18.102h-4.769Zm-45.6-11.06h9.086v4.184h-9.086v2.712h9.3v4.161H45.928v-18.1h14.067v4.162h-9.299v2.88Zm-15.86 5.009a441.873 441.873 0 0 1 4.175 5.292l.592.759H33.85l-.147-.178c-1.389-1.696-2.734-3.439-4.07-5.174H27.76v5.352h-4.744V3.896h8.299a7.6 7.6 0 0 1 3.547.807 5.906 5.906 0 0 1 2.43 2.295 6.517 6.517 0 0 1 .856 3.333 6.336 6.336 0 0 1-1.04 3.568 6.05 6.05 0 0 1-2.272 2.05v-.002ZM4.77 8.057v4.781h3.386c.642 0 1.25-.154 1.672-.65a2.608 2.608 0 0 0 .28-2.87 2.354 2.354 0 0 0-.893-.908 2.79 2.79 0 0 0-1.443-.353H4.769Zm133.388 0v4.425h3.556a2.15 2.15 0 0 0 1.462-.571c.474-.414.632-.976.632-1.583a2.97 2.97 0 0 0-.481-1.628c-.339-.534-1.012-.646-1.609-.646l-3.56.003Zm-110.396 0v4.425h3.555c.544 0 1.068-.205 1.462-.571.474-.414.632-.976.632-1.583a2.965 2.965 0 0 0-.481-1.628c-.34-.534-1.012-.646-1.609-.646l-3.56.003Z" fill="url(#b)"/></g><defs><linearGradient id="b" x1="61.903" y1="-13.039" x2="84.094" y2="40.581" gradientUnits="userSpaceOnUse"><stop stop-color="#9F6725"/><stop offset=".24" stop-color="#D2AB5A"/><stop offset=".47" stop-color="#9F6725"/><stop offset=".72" stop-color="#D2AB5A"/><stop offset="1" stop-color="#9F6725"/></linearGradient><clipPath id="a"><path fill="#fff" d="M0 0h150v22H0z"/></clipPath></defs></svg>